<mxfile host="Electron" modified="2024-07-24T02:08:58.479Z" agent="Mozilla/5.0 (Windows NT 10.0; Win64; x64) AppleWebKit/537.36 (KHTML, like Gecko) draw.io/24.4.13 Chrome/124.0.6367.207 Electron/30.0.6 Safari/537.36" etag="6EP24Cb8VBN-6N110P4C" version="24.4.13" type="device" pages="2">
  <diagram name="Arquitectura" id="sEuFiGOCpc8pY2XkVno2">
    <mxGraphModel dx="2711" dy="1104" grid="1" gridSize="10" guides="1" tooltips="1" connect="1" arrows="1" fold="1" page="1" pageScale="1" pageWidth="827" pageHeight="1169" math="0" shadow="0">
      <root>
        <mxCell id="0" />
        <mxCell id="1" parent="0" />
        <mxCell id="hW8_qcurHlYVZJoK86XC-85" value="Arquitectura" style="rounded=0;whiteSpace=wrap;html=1;fillColor=#f5f5f5;dashed=1;strokeColor=#666666;strokeWidth=3;align=left;verticalAlign=top;fontColor=#333333;container=1;" parent="1" vertex="1">
          <mxGeometry x="-590" y="610" width="860" height="1140" as="geometry" />
        </mxCell>
        <mxCell id="T5GzbgagAv_Y8_V-H3qC-12" value="Rabbit, port: 5671&amp;nbsp;" style="text;html=1;align=center;verticalAlign=middle;whiteSpace=wrap;rounded=0;" parent="hW8_qcurHlYVZJoK86XC-85" vertex="1">
          <mxGeometry x="461" y="670" width="129" height="30" as="geometry" />
        </mxCell>
        <mxCell id="hW8_qcurHlYVZJoK86XC-34" style="edgeStyle=orthogonalEdgeStyle;rounded=0;orthogonalLoop=1;jettySize=auto;html=1;" parent="1" source="hW8_qcurHlYVZJoK86XC-33" target="hW8_qcurHlYVZJoK86XC-73" edge="1">
          <mxGeometry relative="1" as="geometry" />
        </mxCell>
        <mxCell id="hW8_qcurHlYVZJoK86XC-38" value="Message Broker" style="shape=rectangle;whiteSpace=wrap;html=1;direction=west;flipH=1;flipV=1;fillColor=#e1d5e7;strokeColor=#9673a6;" parent="1" vertex="1">
          <mxGeometry x="-257" y="1290" width="120" height="40" as="geometry" />
        </mxCell>
        <mxCell id="hW8_qcurHlYVZJoK86XC-39" value="Service: Clientes y Personas" style="shape=rectangle;whiteSpace=wrap;html=1;direction=west;flipH=1;flipV=1;fillColor=#dae8fc;strokeColor=#6c8ebf;" parent="1" vertex="1">
          <mxGeometry x="-570" y="1360" width="120" height="40" as="geometry" />
        </mxCell>
        <mxCell id="hW8_qcurHlYVZJoK86XC-40" value="Service: Cuentas y Movimientos" style="shape=rectangle;whiteSpace=wrap;html=1;direction=west;flipH=1;flipV=1;fillColor=#e1d5e7;strokeColor=#9673a6;" parent="1" vertex="1">
          <mxGeometry x="60" y="1360" width="120" height="40" as="geometry" />
        </mxCell>
        <mxCell id="hW8_qcurHlYVZJoK86XC-43" value="Circuit Breaker" style="shape=rectangle;whiteSpace=wrap;html=1;direction=west;flipH=1;flipV=1;fillColor=#f5f5f5;fontColor=#333333;strokeColor=#666666;" parent="1" vertex="1">
          <mxGeometry x="-253" y="1360" width="120" height="40" as="geometry" />
        </mxCell>
        <mxCell id="hW8_qcurHlYVZJoK86XC-44" value="" style="edgeStyle=orthogonalEdgeStyle;rounded=0;orthogonalLoop=1;jettySize=auto;html=1;endArrow=block;endFill=1;exitX=0;exitY=0.5;exitDx=0;exitDy=0;exitPerimeter=0;" parent="1" source="hW8_qcurHlYVZJoK86XC-73" target="hW8_qcurHlYVZJoK86XC-39" edge="1">
          <mxGeometry relative="1" as="geometry" />
        </mxCell>
        <mxCell id="hW8_qcurHlYVZJoK86XC-45" value="" style="edgeStyle=orthogonalEdgeStyle;rounded=0;orthogonalLoop=1;jettySize=auto;html=1;endArrow=block;endFill=1;" parent="1" source="hW8_qcurHlYVZJoK86XC-73" target="hW8_qcurHlYVZJoK86XC-40" edge="1">
          <mxGeometry relative="1" as="geometry" />
        </mxCell>
        <mxCell id="hW8_qcurHlYVZJoK86XC-46" value="" style="edgeStyle=orthogonalEdgeStyle;rounded=0;orthogonalLoop=1;jettySize=auto;html=1;endArrow=block;endFill=1;entryX=0.5;entryY=0;entryDx=0;entryDy=0;entryPerimeter=0;" parent="1" source="hW8_qcurHlYVZJoK86XC-39" target="hW8_qcurHlYVZJoK86XC-79" edge="1">
          <mxGeometry relative="1" as="geometry" />
        </mxCell>
        <mxCell id="hW8_qcurHlYVZJoK86XC-47" value="" style="edgeStyle=orthogonalEdgeStyle;rounded=0;orthogonalLoop=1;jettySize=auto;html=1;endArrow=block;endFill=1;" parent="1" source="hW8_qcurHlYVZJoK86XC-40" target="hW8_qcurHlYVZJoK86XC-82" edge="1">
          <mxGeometry relative="1" as="geometry" />
        </mxCell>
        <mxCell id="hW8_qcurHlYVZJoK86XC-48" value="" style="edgeStyle=orthogonalEdgeStyle;rounded=0;orthogonalLoop=1;jettySize=auto;html=1;endArrow=block;endFill=1;fillColor=#ffe6cc;strokeColor=#d79b00;" parent="1" source="hW8_qcurHlYVZJoK86XC-38" target="hW8_qcurHlYVZJoK86XC-39" edge="1">
          <mxGeometry relative="1" as="geometry" />
        </mxCell>
        <mxCell id="hW8_qcurHlYVZJoK86XC-49" value="" style="edgeStyle=orthogonalEdgeStyle;rounded=0;orthogonalLoop=1;jettySize=auto;html=1;endArrow=block;endFill=1;fillColor=#ffe6cc;strokeColor=#d79b00;" parent="1" source="hW8_qcurHlYVZJoK86XC-38" target="hW8_qcurHlYVZJoK86XC-40" edge="1">
          <mxGeometry relative="1" as="geometry" />
        </mxCell>
        <mxCell id="hW8_qcurHlYVZJoK86XC-50" value="" style="edgeStyle=orthogonalEdgeStyle;rounded=0;orthogonalLoop=1;jettySize=auto;html=1;endArrow=block;endFill=1;fillColor=#d5e8d4;strokeColor=#82b366;exitX=0;exitY=0.5;exitDx=0;exitDy=0;exitPerimeter=0;" parent="1" source="hW8_qcurHlYVZJoK86XC-74" target="hW8_qcurHlYVZJoK86XC-39" edge="1">
          <mxGeometry relative="1" as="geometry" />
        </mxCell>
        <mxCell id="hW8_qcurHlYVZJoK86XC-51" value="" style="edgeStyle=orthogonalEdgeStyle;rounded=0;orthogonalLoop=1;jettySize=auto;html=1;endArrow=block;endFill=1;fillColor=#d5e8d4;strokeColor=#82b366;" parent="1" source="hW8_qcurHlYVZJoK86XC-74" target="hW8_qcurHlYVZJoK86XC-40" edge="1">
          <mxGeometry relative="1" as="geometry" />
        </mxCell>
        <mxCell id="hW8_qcurHlYVZJoK86XC-52" value="" style="edgeStyle=orthogonalEdgeStyle;rounded=0;orthogonalLoop=1;jettySize=auto;html=1;endArrow=block;endFill=1;fillColor=#dae8fc;strokeColor=#6c8ebf;exitX=0;exitY=0.5;exitDx=0;exitDy=0;exitPerimeter=0;" parent="1" source="hW8_qcurHlYVZJoK86XC-75" target="hW8_qcurHlYVZJoK86XC-39" edge="1">
          <mxGeometry relative="1" as="geometry" />
        </mxCell>
        <mxCell id="hW8_qcurHlYVZJoK86XC-53" value="" style="edgeStyle=orthogonalEdgeStyle;rounded=0;orthogonalLoop=1;jettySize=auto;html=1;endArrow=block;endFill=1;fillColor=#dae8fc;strokeColor=#6c8ebf;exitX=1;exitY=0.5;exitDx=0;exitDy=0;exitPerimeter=0;" parent="1" source="hW8_qcurHlYVZJoK86XC-75" target="hW8_qcurHlYVZJoK86XC-40" edge="1">
          <mxGeometry relative="1" as="geometry" />
        </mxCell>
        <mxCell id="hW8_qcurHlYVZJoK86XC-54" value="" style="edgeStyle=orthogonalEdgeStyle;rounded=0;orthogonalLoop=1;jettySize=auto;html=1;endArrow=block;endFill=1;" parent="1" source="hW8_qcurHlYVZJoK86XC-39" target="hW8_qcurHlYVZJoK86XC-43" edge="1">
          <mxGeometry relative="1" as="geometry" />
        </mxCell>
        <mxCell id="hW8_qcurHlYVZJoK86XC-55" value="" style="edgeStyle=orthogonalEdgeStyle;rounded=0;orthogonalLoop=1;jettySize=auto;html=1;endArrow=block;endFill=1;" parent="1" source="hW8_qcurHlYVZJoK86XC-40" target="hW8_qcurHlYVZJoK86XC-43" edge="1">
          <mxGeometry relative="1" as="geometry" />
        </mxCell>
        <mxCell id="hW8_qcurHlYVZJoK86XC-73" value="&lt;span style=&quot;color: rgb(0, 0, 0); text-wrap: wrap;&quot;&gt;API Gateway&lt;/span&gt;" style="sketch=0;points=[[0,0,0],[0.25,0,0],[0.5,0,0],[0.75,0,0],[1,0,0],[0,1,0],[0.25,1,0],[0.5,1,0],[0.75,1,0],[1,1,0],[0,0.25,0],[0,0.5,0],[0,0.75,0],[1,0.25,0],[1,0.5,0],[1,0.75,0]];outlineConnect=0;fontColor=#232F3E;fillColor=#E7157B;strokeColor=#ffffff;dashed=0;verticalLabelPosition=bottom;verticalAlign=top;align=center;html=1;fontSize=12;fontStyle=0;aspect=fixed;shape=mxgraph.aws4.resourceIcon;resIcon=mxgraph.aws4.api_gateway;" parent="1" vertex="1">
          <mxGeometry x="-229" y="800" width="78" height="78" as="geometry" />
        </mxCell>
        <mxCell id="hW8_qcurHlYVZJoK86XC-74" value="&#xa;&lt;span style=&quot;color: rgb(0, 0, 0); font-family: Helvetica; font-size: 12px; font-style: normal; font-variant-ligatures: normal; font-variant-caps: normal; font-weight: 400; letter-spacing: normal; orphans: 2; text-align: center; text-indent: 0px; text-transform: none; widows: 2; word-spacing: 0px; -webkit-text-stroke-width: 0px; white-space: normal; background-color: rgb(251, 251, 251); text-decoration-thickness: initial; text-decoration-style: initial; text-decoration-color: initial; display: inline !important; float: none;&quot;&gt;Service Discovery&lt;/span&gt;&#xa;&#xa;" style="sketch=0;points=[[0,0,0],[0.25,0,0],[0.5,0,0],[0.75,0,0],[1,0,0],[0,1,0],[0.25,1,0],[0.5,1,0],[0.75,1,0],[1,1,0],[0,0.25,0],[0,0.5,0],[0,0.75,0],[1,0.25,0],[1,0.5,0],[1,0.75,0]];outlineConnect=0;fontColor=#232F3E;fillColor=#01A88D;strokeColor=#ffffff;dashed=0;verticalLabelPosition=bottom;verticalAlign=top;align=center;html=1;fontSize=12;fontStyle=0;aspect=fixed;shape=mxgraph.aws4.resourceIcon;resIcon=mxgraph.aws4.application_discovery_service;" parent="1" vertex="1">
          <mxGeometry x="-226" y="960" width="58" height="58" as="geometry" />
        </mxCell>
        <mxCell id="hW8_qcurHlYVZJoK86XC-77" style="edgeStyle=orthogonalEdgeStyle;rounded=0;orthogonalLoop=1;jettySize=auto;html=1;fillColor=#e1d5e7;strokeColor=#9673a6;" parent="1" source="hW8_qcurHlYVZJoK86XC-75" target="hW8_qcurHlYVZJoK86XC-76" edge="1">
          <mxGeometry relative="1" as="geometry" />
        </mxCell>
        <mxCell id="hW8_qcurHlYVZJoK86XC-75" value="&#xa;&lt;span style=&quot;color: rgb(0, 0, 0); font-family: Helvetica; font-size: 12px; font-style: normal; font-variant-ligatures: normal; font-variant-caps: normal; font-weight: 400; letter-spacing: normal; orphans: 2; text-align: center; text-indent: 0px; text-transform: none; widows: 2; word-spacing: 0px; -webkit-text-stroke-width: 0px; white-space: normal; background-color: rgb(251, 251, 251); text-decoration-thickness: initial; text-decoration-style: initial; text-decoration-color: initial; display: inline !important; float: none;&quot;&gt;Configuration Server&lt;/span&gt;&#xa;&#xa;" style="sketch=0;points=[[0,0,0],[0.25,0,0],[0.5,0,0],[0.75,0,0],[1,0,0],[0,1,0],[0.25,1,0],[0.5,1,0],[0.75,1,0],[1,1,0],[0,0.25,0],[0,0.5,0],[0,0.75,0],[1,0.25,0],[1,0.5,0],[1,0.75,0]];outlineConnect=0;fontColor=#232F3E;fillColor=#01A88D;strokeColor=#ffffff;dashed=0;verticalLabelPosition=bottom;verticalAlign=top;align=center;html=1;fontSize=12;fontStyle=0;aspect=fixed;shape=mxgraph.aws4.resourceIcon;resIcon=mxgraph.aws4.server_migration_service;" parent="1" vertex="1">
          <mxGeometry x="-226" y="1096" width="73" height="73" as="geometry" />
        </mxCell>
        <mxCell id="hW8_qcurHlYVZJoK86XC-76" value="Repositorio&lt;div&gt;&lt;br&gt;&lt;/div&gt;" style="verticalLabelPosition=bottom;html=1;verticalAlign=top;align=center;strokeColor=none;fillColor=#00BEF2;shape=mxgraph.azure.github_code;pointerEvents=1;" parent="1" vertex="1">
          <mxGeometry x="194" y="1236" width="49" height="50" as="geometry" />
        </mxCell>
        <mxCell id="hW8_qcurHlYVZJoK86XC-79" value="&#xa;&lt;span style=&quot;color: rgb(0, 0, 0); font-family: Helvetica; font-size: 12px; font-style: normal; font-variant-ligatures: normal; font-variant-caps: normal; font-weight: 400; letter-spacing: normal; orphans: 2; text-align: center; text-indent: 0px; text-transform: none; widows: 2; word-spacing: 0px; -webkit-text-stroke-width: 0px; white-space: normal; background-color: rgb(251, 251, 251); text-decoration-thickness: initial; text-decoration-style: initial; text-decoration-color: initial; display: inline !important; float: none;&quot;&gt;Base de Datos: Clientes y Personas&lt;/span&gt;&#xa;&#xa;" style="shape=cylinder3;whiteSpace=wrap;html=1;boundedLbl=1;backgroundOutline=1;size=15;fillColor=#f5f5f5;strokeColor=#666666;fontColor=#333333;" parent="1" vertex="1">
          <mxGeometry x="-550" y="1600" width="80" height="90" as="geometry" />
        </mxCell>
        <mxCell id="hW8_qcurHlYVZJoK86XC-82" value="&#xa;&lt;span style=&quot;color: rgb(0, 0, 0); font-family: Helvetica; font-size: 12px; font-style: normal; font-variant-ligatures: normal; font-variant-caps: normal; font-weight: 400; letter-spacing: normal; orphans: 2; text-align: center; text-indent: 0px; text-transform: none; widows: 2; word-spacing: 0px; -webkit-text-stroke-width: 0px; white-space: normal; background-color: rgb(251, 251, 251); text-decoration-thickness: initial; text-decoration-style: initial; text-decoration-color: initial; display: inline !important; float: none;&quot;&gt;Base de Datos: Cuentas y Movimientos&lt;/span&gt;&#xa;&#xa;" style="shape=cylinder3;whiteSpace=wrap;html=1;boundedLbl=1;backgroundOutline=1;size=10.199981689453125;fillColor=#f5f5f5;fontColor=#333333;strokeColor=#666666;" parent="1" vertex="1">
          <mxGeometry x="80" y="1580" width="80" height="90" as="geometry" />
        </mxCell>
        <mxCell id="hW8_qcurHlYVZJoK86XC-84" value="" style="group" parent="1" vertex="1" connectable="0">
          <mxGeometry x="-420" y="630" width="440" height="120" as="geometry" />
        </mxCell>
        <mxCell id="hW8_qcurHlYVZJoK86XC-33" value="" style="rounded=0;whiteSpace=wrap;html=1;fillColor=#d5e8d4;strokeColor=#82b366;" parent="hW8_qcurHlYVZJoK86XC-84" vertex="1">
          <mxGeometry x="150" width="160" height="120" as="geometry" />
        </mxCell>
        <mxCell id="hW8_qcurHlYVZJoK86XC-17" value="" style="points=[[0.35,0,0],[0.98,0.51,0],[1,0.71,0],[0.67,1,0],[0,0.795,0],[0,0.65,0]];verticalLabelPosition=bottom;sketch=0;html=1;verticalAlign=top;aspect=fixed;align=center;pointerEvents=1;shape=mxgraph.cisco19.user;fillColor=#005073;strokeColor=none;" parent="hW8_qcurHlYVZJoK86XC-84" vertex="1">
          <mxGeometry x="240" y="30.000588235294124" width="42.352941176470594" height="42.352941176470594" as="geometry" />
        </mxCell>
        <mxCell id="hW8_qcurHlYVZJoK86XC-18" value="Mobile client" style="sketch=0;outlineConnect=0;strokeColor=#6c8ebf;fillColor=#dae8fc;dashed=0;verticalLabelPosition=bottom;verticalAlign=top;align=center;html=1;fontSize=12;fontStyle=0;aspect=fixed;shape=mxgraph.aws4.resourceIcon;resIcon=mxgraph.aws4.mobile_client;" parent="hW8_qcurHlYVZJoK86XC-84" vertex="1">
          <mxGeometry x="170" y="20.001764705882355" width="42.352941176470594" height="42.352941176470594" as="geometry" />
        </mxCell>
        <mxCell id="T5GzbgagAv_Y8_V-H3qC-1" value="Port:&lt;span style=&quot;color: rgb(42, 172, 184); font-family: &amp;quot;JetBrains Mono&amp;quot;, monospace; font-size: 13.0667px; background-color: rgb(30, 31, 34);&quot;&gt;8083&lt;/span&gt;" style="text;html=1;align=center;verticalAlign=middle;whiteSpace=wrap;rounded=0;" parent="1" vertex="1">
          <mxGeometry x="-510" y="1330" width="60" height="30" as="geometry" />
        </mxCell>
        <mxCell id="T5GzbgagAv_Y8_V-H3qC-4" value="Port:&lt;span style=&quot;color: rgb(42, 172, 184); font-family: &amp;quot;JetBrains Mono&amp;quot;, monospace; font-size: 9.8pt; background-color: rgb(30, 31, 34);&quot;&gt;8084&lt;/span&gt;" style="text;html=1;align=center;verticalAlign=middle;whiteSpace=wrap;rounded=0;" parent="1" vertex="1">
          <mxGeometry x="134" y="1330" width="60" height="30" as="geometry" />
        </mxCell>
        <mxCell id="T5GzbgagAv_Y8_V-H3qC-7" value="Port:&lt;span style=&quot;color: rgb(42, 172, 184); font-family: &amp;quot;JetBrains Mono&amp;quot;, monospace; font-size: 9.8pt; background-color: rgb(30, 31, 34);&quot;&gt;8761&lt;/span&gt;" style="text;html=1;align=center;verticalAlign=middle;whiteSpace=wrap;rounded=0;" parent="1" vertex="1">
          <mxGeometry x="-168" y="960" width="60" height="30" as="geometry" />
        </mxCell>
        <mxCell id="T5GzbgagAv_Y8_V-H3qC-10" value="Port:&amp;nbsp;&lt;span style=&quot;color: rgb(42, 172, 184); font-family: &amp;quot;JetBrains Mono&amp;quot;, monospace; font-size: 9.8pt; background-color: rgb(30, 31, 34);&quot;&gt;8081&lt;/span&gt;" style="text;html=1;align=center;verticalAlign=middle;whiteSpace=wrap;rounded=0;" parent="1" vertex="1">
          <mxGeometry x="-150" y="804" width="60" height="30" as="geometry" />
        </mxCell>
        <mxCell id="T5GzbgagAv_Y8_V-H3qC-11" value="Port:&lt;span style=&quot;color: rgb(42, 172, 184); font-family: &amp;quot;JetBrains Mono&amp;quot;, monospace; font-size: 13.0667px; background-color: rgb(30, 31, 34);&quot;&gt;8082&lt;/span&gt;" style="text;html=1;align=center;verticalAlign=middle;whiteSpace=wrap;rounded=0;" parent="1" vertex="1">
          <mxGeometry x="-150" y="1096" width="60" height="30" as="geometry" />
        </mxCell>
        <mxCell id="T5GzbgagAv_Y8_V-H3qC-13" value="ClientRepository" style="rounded=0;whiteSpace=wrap;html=1;" parent="1" vertex="1">
          <mxGeometry x="-580" y="2020" width="120" height="60" as="geometry" />
        </mxCell>
        <mxCell id="T5GzbgagAv_Y8_V-H3qC-14" value="PersonaRepository" style="rounded=0;whiteSpace=wrap;html=1;" parent="1" vertex="1">
          <mxGeometry x="-580" y="2100" width="120" height="60" as="geometry" />
        </mxCell>
        <mxCell id="-2-EnYuT8rSVb3doI32z-1" style="edgeStyle=orthogonalEdgeStyle;rounded=0;orthogonalLoop=1;jettySize=auto;html=1;entryX=1;entryY=0.5;entryDx=0;entryDy=0;" edge="1" parent="1" source="T5GzbgagAv_Y8_V-H3qC-15" target="T5GzbgagAv_Y8_V-H3qC-13">
          <mxGeometry relative="1" as="geometry" />
        </mxCell>
        <mxCell id="-2-EnYuT8rSVb3doI32z-2" style="edgeStyle=orthogonalEdgeStyle;rounded=0;orthogonalLoop=1;jettySize=auto;html=1;entryX=1;entryY=0.5;entryDx=0;entryDy=0;" edge="1" parent="1" source="T5GzbgagAv_Y8_V-H3qC-15" target="T5GzbgagAv_Y8_V-H3qC-14">
          <mxGeometry relative="1" as="geometry" />
        </mxCell>
        <mxCell id="T5GzbgagAv_Y8_V-H3qC-15" value="ImplemntacionClient" style="rounded=0;whiteSpace=wrap;html=1;" parent="1" vertex="1">
          <mxGeometry x="-300" y="2020" width="140" height="60" as="geometry" />
        </mxCell>
        <mxCell id="-2-EnYuT8rSVb3doI32z-3" style="edgeStyle=orthogonalEdgeStyle;rounded=0;orthogonalLoop=1;jettySize=auto;html=1;entryX=1;entryY=0.5;entryDx=0;entryDy=0;" edge="1" parent="1" source="e1F7ba8DyUHI9YGMemae-1" target="T5GzbgagAv_Y8_V-H3qC-15">
          <mxGeometry relative="1" as="geometry" />
        </mxCell>
        <mxCell id="e1F7ba8DyUHI9YGMemae-1" value="ClienteController" style="rounded=0;whiteSpace=wrap;html=1;" vertex="1" parent="1">
          <mxGeometry x="-60" y="2020" width="120" height="60" as="geometry" />
        </mxCell>
        <mxCell id="-2-EnYuT8rSVb3doI32z-4" value="" style="rounded=0;whiteSpace=wrap;html=1;fillColor=none;" vertex="1" parent="1">
          <mxGeometry x="-620" y="1960" width="710" height="210" as="geometry" />
        </mxCell>
      </root>
    </mxGraphModel>
  </diagram>
  <diagram id="v7ZWOIwtZGWe5dyKTv4t" name="Página-2">
    <mxGraphModel dx="1727" dy="1012" grid="1" gridSize="10" guides="1" tooltips="1" connect="1" arrows="1" fold="1" page="1" pageScale="1" pageWidth="827" pageHeight="1169" math="0" shadow="0">
      <root>
        <mxCell id="0" />
        <mxCell id="1" parent="0" />
      </root>
    </mxGraphModel>
  </diagram>
</mxfile>
